<?xml version="1.0" encoding="utf-8"?>
<!-- Generator: Adobe Illustrator 27.2.0, SVG Export Plug-In . SVG Version: 6.00 Build 0)  -->
<svg version="1.1" id="Capa_1" xmlns="http://www.w3.org/2000/svg" xmlns:xlink="http://www.w3.org/1999/xlink" x="0px" y="0px"
	 viewBox="0 0 314.1 314.1" style="enable-background:new 0 0 314.1 314.1;" xml:space="preserve">
<style type="text/css">
	.st0{fill:#E5E7EB;}
	.st1{fill:none;}
</style>
<g id="Livello_2">
	<g id="Livello_10">
		<path class="st0" d="M172.2,78.4l-15.2,17.7l-15.2-17.7c-6.9-8-7.7-19.5-2.1-28.4l17.3-27.4L174.3,50
			C179.9,58.9,179.1,70.4,172.2,78.4z"/>
		<path class="st0" d="M268.1,172.7l-0.8,0.6l0.6,0.5c-6.9,39.2-38.2,56.4-56,64.9c-20.1,9.6-54.9,29.4-54.9,52.8
			c0-23.3-34.8-43.1-54.9-52.8c-17.8-8.5-49.1-25.7-56-64.9l0.6-0.5l-0.8-0.6c-0.8-5.1-1.2-10.2-1.2-15.3c0-51,40.5-73.4,65.9-73.4
			c19.1,0,33,11.4,38.6,17.1c1.7,1.7,2,4.3,0.6,6.3l-4.1,6.2c-0.7,1.1-2.2,1.4-3.3,0.7c-0.2-0.1-0.4-0.3-0.6-0.5
			c-5.3-6.7-21.2-22.1-48.9-11.8c-20.7,7.8-33.7,27-33.7,50s14.2,56.4,51.4,70.2s46.3,36.1,46.3,36.1s9.1-22.3,46.3-36.1
			s51.4-47.2,51.4-70.2s-13-42.2-33.7-49.9c-27.7-10.4-43.6,5.1-48.9,11.8c-0.8,1-2.3,1.2-3.4,0.4c-0.2-0.2-0.4-0.4-0.5-0.6
			l-4.1-6.2c-1.3-2-1-4.6,0.6-6.3c5.6-5.7,19.5-17.1,38.6-17.1c25.4,0,65.9,22.4,65.9,73.4C269.3,162.6,268.9,167.7,268.1,172.7z"/>
		<path class="st0" d="M46.8,173.3l-0.6,0.5c-0.1-0.4-0.1-0.7-0.2-1.1L46.8,173.3z"/>
		<path class="st0" d="M140.8,206.4c-31.7-27.8-39-46.3-31.8-63s27.1-9.9,27.1-9.9c-17.1-17.7-31.5-14.4-39.5-9.9
			c-4.8,2.8-8.7,7-11,12c-6.5,13.8-0.6,27.1,9.4,38.4c-6.3,0.5-14.1,3.2-18.6,12.4c0,0,4.7-4.8,11-5.6s12.7-1.2,17.6,2.8l0,0
			C121.3,197.4,140.8,206.4,140.8,206.4z"/>
		<path class="st0" d="M60.9,92.8c-1.1-8.1-7.8-14.3-15.9-14.6l-20.4-0.8l4.8,16.8c2.5,8.7,11,14.3,20,13.1l13.1-1.8L60.9,92.8z"/>
		<path class="st0" d="M46.8,173.3l-0.6,0.5l-7.9,6.8c-4.1,3.5-10,3.9-14.5,0.9l-10-6.6l10.5-7.7c4.2-3.1,10-3.1,14.2,0l7.5,5.4
			L46.8,173.3z"/>
		<path class="st0" d="M268.1,172.7c0,0.4-0.1,0.7-0.2,1.1l-0.6-0.5L268.1,172.7z"/>
		<path class="st0" d="M173.4,206.4c31.7-27.8,39-46.3,31.8-63s-27.2-10-27.2-10c17.1-17.7,31.5-14.4,39.5-9.9c4.8,2.8,8.7,7,11,12
			c6.5,13.8,0.6,27.1-9.4,38.4c6.3,0.5,14.1,3.2,18.6,12.4c0,0-4.6-4.8-11-5.6s-12.7-1.2-17.6,2.8l0,0
			C192.8,197.4,173.4,206.4,173.4,206.4z"/>
		<path class="st0" d="M253.2,92.8c1.1-8.1,7.8-14.2,15.9-14.6l20.4-0.8l-4.8,16.8c-2.5,8.7-11,14.3-20,13.1l-13.1-1.8L253.2,92.8z"
			/>
		<path class="st0" d="M300.3,175l-10,6.6c-4.5,3-10.4,2.6-14.5-0.9l-7.9-6.8l-0.6-0.5l0.8-0.6l7.5-5.5c4.2-3.1,10-3.1,14.2,0
			L300.3,175z"/>
		<rect y="0" class="st1" width="314.1" height="314.1"/>
	</g>
</g>
</svg>
