<?xml version="1.0" encoding="utf-8"?>
<!-- Generator: Adobe Illustrator 27.2.0, SVG Export Plug-In . SVG Version: 6.00 Build 0)  -->
<svg version="1.1" id="Capa_1" xmlns="http://www.w3.org/2000/svg" xmlns:xlink="http://www.w3.org/1999/xlink" x="0px" y="0px"
	 viewBox="0 0 314.1 314.1" style="enable-background:new 0 0 314.1 314.1;" xml:space="preserve">
<style type="text/css">
	.st0{fill:none;}
	.st1{fill:#E5E7EB;}
</style>
<g id="Livello_2">
	<g id="Livello_10">
		<rect class="st0" width="314.1" height="314.1"/>
		<g>
			<path class="st1" d="M294.4,190.3c-11.8,5-52.1,5.5-57.5,0c-5.5-5.5,8.8-28.9,8.8-28.9h-73.4l-16.9,16.7h26.7l2.5,40.4h50.2
				c0,0,1.9,44.3-1.9,51.9c-3.8,7.6-27.3,19.7-36.5,20.4c-21.2,5-28.2,1.4-30.3-4.6c-6.8-19.9,30.9-3.8,25-15.5
				c-5.9-11.8-37.3-23.3-37.4,9.2c-0.1,38.2,59.7,25.5,81.2,19.3c24.4-6.9,23.8-14.9,30-23.7C301.1,224.1,306.2,185.3,294.4,190.3z"
				/>
			<path class="st1" d="M146.7,83.3l-20.5,0.6l1.9-58.3c0,0-90.7,7.2-108.6,69.6c-15.7,54.6,6.8,76.2,23.9,74.3
				c9.1-1,34.2-15.6,4.3-44.9c0,0,9.1,24.8-4.1,26.7c-10.6,1.6-16-4.2-6.2-46.9c7.2-31,60.8-18.1,62.4-13.7l1.9,44.5h38.6l4.4,13
				l17,2.9l-2.1-83.8L146.7,83.3z"/>
			<path class="st1" d="M174.7,238.2l-5.7-53.2h-20.7l-1.3,32.2l-31.8,2.4l-2.2,0.2l69.6-68.6h41.5v-40.9l0,0l25.4-25L273,96.3
				l26.9-74.7l-71.4,28.6l9.4,25l-25.1,25.1l-44.2-1.3v45.6l-6.9,6.9l-6.4,6.4L84,150.2l-7.8,73.9c-16.1,5.3-37.8,14.2-38.9,23.9
				c-0.9,8.1,1.5,15.7,5.6,21.9l-5.6,5.6v10.5h8.4l6.3-6.3c7.7,5.7,17.1,8,24.5,4.6c10.2-4.7,17.7-21.8,21.9-34.1L174.7,238.2z
				 M136.5,176.6l-33.1,33.1l1.9-34.6L136.5,176.6z"/>
		</g>
	</g>
</g>
</svg>
