<?xml version="1.0" encoding="utf-8"?>
<!-- Generator: Adobe Illustrator 27.2.0, SVG Export Plug-In . SVG Version: 6.00 Build 0)  -->
<svg version="1.1" id="Capa_1" xmlns="http://www.w3.org/2000/svg" xmlns:xlink="http://www.w3.org/1999/xlink" x="0px" y="0px"
	 viewBox="0 0 314.1 314.1" style="enable-background:new 0 0 314.1 314.1;" xml:space="preserve">
<style type="text/css">
	.st0{fill:#E5E7EB;}
	.st1{fill:none;}
</style>
<g id="Livello_2">
	<g id="Livello_10">
		<path class="st0" d="M279.9,166.3l-36.7-10.9l0,0c-1.8-6.5-13.4-21-14.1-33.8c-0.9-15.4,15.1-44.7,11.9-46.8
			c-3.3-2.1-28.7,13-43.6,15.1c-10.6,1.5-25.7-10.6-33.9-15.2l0,0l-8.7-46.9c-0.3-1.5-2.4-1.5-2.7,0c-3.2,16.2-11.8,55.1-19.3,57.2
			c-9.6,2.7-28.9,18.2-28.9,18.2c-4.9,0.9-36-3.8-36-3.8l14.9,22.9c-0.1,0.6-1.9-0.9-2.6,1c-0.6,1.6-0.1,6.6-0.2,7.3
			c-1.3,12.8-11.9,28.3-16,34c-0.4,0.5,0.2,1.1,0.8,0.8l20.5-11.4c-5.1,12.1-38.3,25-50,29.2c-1,0.3-0.8,1.8,0.2,1.9l55.3,5.8
			c4.5,4.7,8.6,8.8,12.3,12.2C91.4,219.3,81.4,233,76,239.5c-0.5,0.6,0.3,1.3,0.8,0.9c6.8-5.1,20.8-15.6,37-27.6
			c15.6,12.6,20.4,10.9,20.4,10.9l20.1,66.7c0.6,1.9,3.2,1.8,3.7-0.1l10.3-42.6c2.1-6.5,27.6-11.3,27.6-11.3l1.8-21.6
			c9.2-3.9,27.6-30.8,27.6-30.8l54.7-15.8C280.8,167.8,280.8,166.6,279.9,166.3z M115.9,133.7c0.2-2.9-9.8-5.8-9.8-5.8l0.4-6.2
			l-8.7-5.1c10-1.6,32.2,6,32.2,6c6.7-10,32.7-9.3,32.7-9.3c-1.9-9.8-2.1-17.8-1.8-24c1.4,4.3,3.1,9.9,4.7,18
			c1.9,9.5-17.1,33.3-36.4,59.8c-3.8,5.2-7.6,10.4-11.3,15.6C104,161.3,115.9,133.7,115.9,133.7z M186.6,189.3
			c-5.1,4.5-29,19.6-52,8.1c30.3-22.2,61.1-44.2,65.8-45.2c4.9-1.1,15.1,1.6,24.3,3.9l-25.7,0.8
			C201.7,167.2,192.3,184.2,186.6,189.3z"/>
		<rect class="st1" width="314.1" height="314.1"/>
	</g>
</g>
</svg>
