<?xml version="1.0" encoding="utf-8"?>
<!-- Generator: Adobe Illustrator 27.2.0, SVG Export Plug-In . SVG Version: 6.00 Build 0)  -->
<svg version="1.1" id="Capa_1" xmlns="http://www.w3.org/2000/svg" xmlns:xlink="http://www.w3.org/1999/xlink" x="0px" y="0px"
	 viewBox="0 0 314.1 314.1" style="enable-background:new 0 0 314.1 314.1;" xml:space="preserve">
<style type="text/css">
	.st0{fill:#E5E7EB;}
	.st1{fill:none;}
</style>
<g id="Livello_2">
	<g id="Livello_10">
		<path class="st0" d="M272.8,247.7c-6.2-2.6-11.4,1.1-14.4-1.5l-1.6-55.6l33.1-33.1l-37.3-37.3l2.6-27.6
			c11.3-16.5,25.5-40.7,21.2-52.7c-12.7-4.5-39,11.6-55.5,23.1l-24.7,0.9L157,24.5L120.5,61l-25.9,1.6C78.1,51.1,52.4,35.5,39.9,40
			C35.6,52.1,50,76.5,61.3,93v20.6l5.4,1.1L24,157.5L59.5,193L58,246.1c-3,2.6-8.1-1.1-14.4,1.5c-6.2,2.6-4.4,29.1-4.4,29.1l0.4,0.4
			c0,0,26.5,1.9,29.1-4.4c2.6-6.2-1.1-11.4,1.5-14.4l53.1-1.5l33.6,33.6l33.5-33.5l55.6,1.6c2.6,3-1.1,8.1,1.5,14.4
			c2.6,6.2,29.1,4.4,29.1,4.4l0.4-0.4C277.2,276.9,279.1,250.4,272.8,247.7z M184.6,90.4l2.6,2.6c-8.6,8.5-19,18.7-29,28.6
			c-10.5-10.3-21.4-21-30.1-29.7l1.4-1.4H184.6z M195.3,157.7c9.7-9.9,19.8-20.1,28.1-28.5l3.5,3.5c0,13.8,0,34,0,49.6l-5.7,5.7
			l0.3-19.1C221.5,168.8,211,171.5,195.3,157.7z M89.5,184.7l1.7-56.2l0.5-0.5c8.5,8.6,19,19.3,29.2,29.6
			c-15.6,13.6-26.1,11-26.1,11l0.3,21.7L89.5,184.7z M158.1,196c13.2,15.4,10.6,25.7,10.6,25.7l19.1-0.3l-5.9,5.9h-49.9l-6.1-6.1
			l21.7,0.3C147.7,221.5,145.1,211.3,158.1,196z"/>
		<rect class="st1" width="314.1" height="314.1"/>
	</g>
</g>
</svg>
