<?xml version="1.0" encoding="utf-8"?>
<!-- Generator: Adobe Illustrator 27.2.0, SVG Export Plug-In . SVG Version: 6.00 Build 0)  -->
<svg version="1.1" id="Capa_1" xmlns="http://www.w3.org/2000/svg" xmlns:xlink="http://www.w3.org/1999/xlink" x="0px" y="0px"
	 viewBox="0 0 314.1 314.1" style="enable-background:new 0 0 314.1 314.1;" xml:space="preserve">
<style type="text/css">
	.st0{fill:#E5E7EB;}
	.st1{fill:none;}
</style>
<g id="Livello_2">
	<g id="Livello_10">
		<path class="st0" d="M255.4,115.2L234.6,136l-9.2-9.2L279.8,32l-96.5,52.6l-10.1-10.1l20.7-20.7l-41-41l-41.5,41.5l20.5,20.5
			L103,103.6l-10.4-0.8l0.9,10.3l-23.8,23.8l-20.5-20.5L7.7,157.8l41,41l20.7-20.7l24.7,24.7l-18.4,17.9l-5.9,1.5l-0.8,5l-32.7,31.7
			c-1.6,1.6-1.7,4.2-0.2,5.8l6.9,7.6c1.7,1.9,4.7,2.1,6.6,0.4l36.1-31.9l2.5,0.8l1.4-4.2l20.8-18.4l20.6,20.6l-20.7,20.7l41,41
			l41.5-41.5l-20.5-20.5l21.9-21.9h12.6V205l27.8-27.8l20.5,20.5l41.5-41.5L255.4,115.2z M152.4,95.2l4,4l-6.9,3.7l12.7,2.1
			l10.9,10.9l-17.9,27.6h-7.9l-21.5-22L152.4,95.2z M111.5,136.1l22.7,22.1c-2.1,4-5.7,8.9-11.6,11.3c0,0-3,9-6.1,14.2l-26.3-26.3
			L111.5,136.1z M151.7,218.9l-23.2-23.2c3.3-2.3,8-5,12.1-4.5c0,0,4.2-11.5,11.1-16l22.1,21.5L151.7,218.9z M186.7,183.9L168.3,165
			l1-9.7l26.4-16.8l11.2,11.2l0.8,7.9l2.6-4.5l3.6,3.6L186.7,183.9z"/>
		<rect class="st1" width="314.1" height="314.1"/>
	</g>
</g>
</svg>
