<?xml version="1.0" encoding="utf-8"?>
<!-- Generator: Adobe Illustrator 27.2.0, SVG Export Plug-In . SVG Version: 6.00 Build 0)  -->
<svg version="1.1" id="Capa_1" xmlns="http://www.w3.org/2000/svg" xmlns:xlink="http://www.w3.org/1999/xlink" x="0px" y="0px"
	 viewBox="0 0 314.1 314.1" style="enable-background:new 0 0 314.1 314.1;" xml:space="preserve">
<style type="text/css">
	.st0{fill:#E5E7EB;}
	.st1{fill:none;}
</style>
<g id="Livello_2">
	<g id="Livello_10">
		<path class="st0" d="M249.4,194.6c2.7-8.3,6.2-16.6,7.6-25.7l0.3-6.7l-33.4,1.7c-5,33.5-33.9,59.1-68.8,59.1c-6.6,0-13-0.9-19-2.6
			l83.9-92c2,5.1,3.4,10.5,4.1,16.1l33.5,1l-0.4-5.3c-1.8-13.8-6.3-26.8-13-38.4L256.9,88c13.8-11.9,14.2-50.3,14.2-50.3
			c-27.3-3.9-53.8,15.6-53.8,15.6l-11.7,10.5c-8.8-5-18.4-8.7-28.6-10.8c-2.6-0.6-5-1.7-7-3.5c-4.2-3.8-9.6-11.3-12.3-19
			c-3.4-9.5-5.7,2.6-5.7,2.6c-3,8.7-6.2,13.7-9.5,17c-1.1,1.1-2.5,1.7-4,2c-16.8,2.8-32.3,9.7-45.4,19.7c-3,2.3-6.9,3.2-10.6,2.6
			c-11.5-2-36.2-7.2-52.2-16.7c0,0-7.3-3.4-0.9,2.8c13.8,13.4,26,32,30.3,42.6c1.6,4.1,1.6,8.6,0,12.7c-3.4,8.7-5.7,17.9-6.7,27.6
			c-0.7,7-0.7,13.9,0,20.5c0,0-1.9,13.6-13.5,20.9c-11.7,7.3,15.6-3.3,20.3,6.9c5.2,11.1,11.8,21.4,19.7,30.3l-3,3h-6.4l-13,18.9
			l-15.4,1.6l-5.6,25l27.1-4.2v-12.5l10.6-11.9l8.6-0.8V234l4.3-4.6c10.4,9.8,22.7,17.4,36.7,22c2.1,0.7,3.9,1.9,5.2,3.7
			c4.9,6.9,17.8,25.5,23.9,37.5c1,1.9,3.7,1.7,4.5-0.2c4.3-11.3,14.5-35.9,24.4-39.2c13.4-4.5,25.9-11.1,36.8-19.5
			c0,0,27.6,1.5,56.7,10.6C288.6,248.4,242.7,214.9,249.4,194.6z M86,145.6c3.6-32.3,29.8-58.1,62.2-61.3c10.8-1,21.1,0.4,30.4,3.7
			l-91.1,81.8C85.7,162.1,85.1,154,86,145.6z"/>
		<rect class="st1" width="314.1" height="314.1"/>
	</g>
</g>
</svg>
