<?xml version="1.0" encoding="utf-8"?>
<!-- Generator: Adobe Illustrator 27.2.0, SVG Export Plug-In . SVG Version: 6.00 Build 0)  -->
<svg version="1.1" id="Capa_1" xmlns="http://www.w3.org/2000/svg" xmlns:xlink="http://www.w3.org/1999/xlink" x="0px" y="0px"
	 viewBox="0 0 314.1 314.1" style="enable-background:new 0 0 314.1 314.1;" xml:space="preserve">
<style type="text/css">
	.st0{fill:#E5E7EB;}
	.st1{fill:none;}
</style>
<g id="Livello_2">
	<g id="Livello_10">
		<path class="st0" d="M157.2,11.8c0,0-24.1,53.9-39,69.8c0.3-0.1,5.3-2,11.6-5.2c5.7,8,27.3,39.9,27.3,62.7
			c0-22.8,21.6-54.7,27.3-62.7c6.4,3.1,11.3,5,11.6,5.2C181.3,65.7,157.2,11.8,157.2,11.8z M157.2,117.4
			c-0.5-17.1-5.2-33.8-13.5-48.7c5.9-3.9,11.2-8.3,13.5-12.9c2.3,4.6,7.6,9,13.5,12.9C162.4,83.6,157.8,100.3,157.2,117.4z"/>
		<path class="st0" d="M282.9,84.6c0,0-58.7,6.1-79.9,1.2c0.2,0.2,4.4,3.6,10.3,7.5c-4.1,8.9-20.9,43.6-40.6,55
			c19.7-11.4,58.2-8.6,68-7.7c0.5,7.1,1.3,12.3,1.4,12.7C248.3,132.4,282.9,84.6,282.9,84.6z M191.4,137.4c14.5-9,26.7-21.3,35.4-36
			c6.3,3.2,12.8,5.5,17.9,5.2c-2.8,4.3-4,11.1-4.4,18.2C213.6,124.8,192.7,136.6,191.4,137.4z"/>
		<path class="st0" d="M282.7,229.8c0,0-34.6-47.8-40.9-68.6c-0.1,0.3-0.9,5.6-1.4,12.7c-9.7,0.9-48.2,3.7-68-7.7
			c19.7,11.4,36.6,46.1,40.6,55c-5.9,3.9-10,7.3-10.3,7.5C224,223.7,282.7,229.8,282.7,229.8z M191.3,177
			c15.1,8.1,31.8,12.4,48.9,12.6c0.4,7.1,1.6,13.9,4.4,18.2c-5.1-0.3-11.6,2-17.9,5.2C217.9,198.4,205.8,186,191.3,177z"/>
		<path class="st0" d="M156.9,302.2c0,0,24.1-53.9,39-69.8c-0.3,0.1-5.3,2.1-11.6,5.2c-5.7-8-27.3-39.9-27.3-62.7
			c0,22.8-21.6,54.7-27.3,62.7c-6.3-3.1-11.3-5-11.6-5.2C132.8,248.4,156.9,302.2,156.9,302.2z M156.9,196.7
			c0.5,17.1,5.2,33.8,13.5,48.7c-5.9,3.9-11.2,8.3-13.5,12.9c-2.3-4.6-7.6-9-13.5-12.9C151.7,230.4,156.3,213.7,156.9,196.7
			L156.9,196.7z"/>
		<path class="st0" d="M31.2,229.5c0,0,58.7-6.1,79.9-1.1c-0.2-0.2-4.4-3.6-10.3-7.5c4.1-8.9,20.9-43.6,40.6-55
			c-19.7,11.4-58.2,8.6-68,7.7c-0.5-7.1-1.3-12.3-1.3-12.7C65.8,181.7,31.2,229.5,31.2,229.5z M122.6,176.7
			c-14.5,9-26.7,21.4-35.4,36.1c-6.3-3.2-12.8-5.5-17.9-5.2c2.8-4.3,4-11.1,4.4-18.1C90.8,189.1,107.6,184.8,122.6,176.7
			L122.6,176.7z"/>
		<path class="st0" d="M31.4,84.3c0,0,34.6,47.8,41,68.6c0.1-0.3,0.9-5.6,1.3-12.7c9.7-0.9,48.2-3.7,68,7.7
			c-19.7-11.4-36.6-46.1-40.6-55c5.9-4,10-7.3,10.3-7.5C90.1,90.3,31.4,84.3,31.4,84.3z M122.8,137.1c-15.1-8.1-31.8-12.4-48.9-12.7
			c-0.4-7.1-1.6-13.9-4.4-18.2c5.1,0.3,11.6-2,17.9-5.2C96.1,115.7,108.3,128.1,122.8,137.1z"/>
		<circle class="st0" cx="157.2" cy="158.1" r="5.6"/>
		<path class="st0" d="M153.9,138l2,17.6l-14.3-10.5c-3.8-2.8-6.2-7.2-6.4-12l-0.4-12.4c0-0.6,0.5-1,1.1-0.9c0.1,0,0.3,0,0.4,0.1
			l10.5,6.6C150.7,129,153.3,133.3,153.9,138z"/>
		<path class="st0" d="M172.9,145.1l-14.3,10.5l1.9-17.6c0.5-4.8,3.2-9,7.2-11.6l10.5-6.6c0.4-0.3,1-0.1,1.3,0.3
			c0.1,0.2,0.1,0.3,0.1,0.5l-0.4,12.4C179.1,137.8,176.8,142.3,172.9,145.1z"/>
		<path class="st0" d="M176.3,165.2l-16.2-7.1l16.2-7.1c4.4-1.9,9.4-1.7,13.6,0.5l10.9,5.8c0.5,0.2,0.6,0.8,0.4,1.3
			c-0.1,0.2-0.2,0.3-0.4,0.4l-10.9,5.8C185.7,166.9,180.7,167.1,176.3,165.2z"/>
		<path class="st0" d="M160.6,178.1l-1.9-17.6l14.3,10.5c3.9,2.8,6.2,7.3,6.4,12.1l0.4,12.4c0,0.5-0.4,0.9-0.9,1
			c-0.2,0-0.4,0-0.5-0.1l-10.5-6.6C163.8,187.1,161.1,182.9,160.6,178.1z"/>
		<path class="st0" d="M141.5,171l14.3-10.5l-2,17.6c-0.5,4.8-3.2,9-7.2,11.5l-10.5,6.6c-0.4,0.3-1,0.1-1.3-0.3
			c-0.1-0.2-0.2-0.3-0.1-0.5l0.4-12.4C135.3,178.3,137.6,173.8,141.5,171z"/>
		<path class="st0" d="M138.1,150.9l16.2,7.1l-16.2,7.1c-4.4,1.9-9.4,1.7-13.6-0.5l-10.9-5.8c-0.5-0.2-0.6-0.8-0.4-1.3
			c0.1-0.2,0.2-0.3,0.4-0.4l10.9-5.8C128.8,149.2,133.8,149,138.1,150.9z"/>
		<rect y="0" class="st1" width="314.1" height="314.1"/>
	</g>
</g>
</svg>
