<?xml version="1.0" encoding="utf-8"?>
<!-- Generator: Adobe Illustrator 27.2.0, SVG Export Plug-In . SVG Version: 6.00 Build 0)  -->
<svg version="1.1" id="Capa_1" xmlns="http://www.w3.org/2000/svg" xmlns:xlink="http://www.w3.org/1999/xlink" x="0px" y="0px"
	 viewBox="0 0 314.1 314.1" style="enable-background:new 0 0 314.1 314.1;" xml:space="preserve">
<style type="text/css">
	.st0{fill:#E5E7EB;}
	.st1{fill:none;}
</style>
<g id="Livello_2">
	<g id="Livello_10">
		<path class="st0" d="M249.6,189.6l2.1-1.6c10.3-8.2,18.4-18.9,23.3-31.1l0,0c0,0-59.1-88.4-117.9-127.2c0,0-65.9,52.2-81.6,80
			c0,0,10.8,39,19.8,49.8c0,0,47.6-45.5,61.8-50.2c0,0,18.3,13.3,26.6,36.4l-28.7,27.2l8.6,11.6l43.2-36.9c0,0-21.8-42.6-49.7-66
			l-55,46.6c0,0,12.5-44,55-86.1C157,42,232.1,127.4,249.6,189.6z"/>
		<path class="st0" d="M64.5,124.4l-2.1,1.6c-10.3,8.2-18.4,18.9-23.3,31.1l0,0c0,0,59.1,88.4,117.9,127.2c0,0,65.9-52.2,81.6-80
			c0,0-10.8-39-19.8-49.8c0,0-47.7,45.1-61.8,49.8c0,0-18.3-12.9-26.5-36l28.7-27.2l-8.6-11.6l-43.2,36.9c0,0,21.8,42.5,49.7,66
			l55.1-46.5c0,0-12.5,44-55.1,86.1C157.1,272.1,82,186.7,64.5,124.4z"/>
		<rect y="0" class="st1" width="314.1" height="314.1"/>
	</g>
</g>
</svg>
